# xmcd
#
# Track frame offsets:
#	150
#	12733
#	32567
#	45830
#	63439
#	82279
#	90398
#	99844
#	108897
#	120567
#	131455
#	137251
#	148494
#	157041
#	167085
#	176913
#	186992
#	196695
#	205733
#	214530
#	225333
#	235655
#	243920
#	255476
#	264525
#
# Disc length: 3674 seconds
#
# Revision: 1
# Processed by: cddbd v1.5.2PL0 Copyright (c) Steve Scherf et al.
# Submitted via: audiograbber 1.83.01
#
DISCID=4c0e5819
DTITLE=Johnny Cash - Hot Hundred [CD 4)
DYEAR=2014
DGENRE=Country
TTITLE0=Ring Of Fire (Live)
TTITLE1=Going To Memphis
TTITLE2=When Papa Played The Dobro
TTITLE3=Boss Jack
TTITLE4=Old Doc Brown
TTITLE5=Sugartime
TTITLE6=Down The Street To 301
TTITLE7=Life Goes On
TTITLE8=Port Of Lonely Hearts
TTITLE9=I Just Thought You'd Like To Know
TTITLE10=My Treasure
TTITLE11=Oh Lonesome Me
TTITLE12=I Forgot To Remember To Forget
TTITLE13=Girl In Saskatoon
TTITLE14=Story Of A Broken Heart
TTITLE15=Hey Porter!
TTITLE16=It's Just About Time
TTITLE17=Lost On The Desert
TTITLE18=Accidentally On Purpose
TTITLE19=In The Jailhouse Now
TTITLE20=Mr. Lonesome
TTITLE21=You Won't Have Far To Go
TTITLE22=In Them Old Cottonfields Back Home
TTITLE23=Delia's Gone
TTITLE24=I Forgot More Than You'll Ever Know
EXTD=
EXTT0=
EXTT1=
EXTT2=
EXTT3=
EXTT4=
EXTT5=
EXTT6=
EXTT7=
EXTT8=
EXTT9=
EXTT10=
EXTT11=
EXTT12=
EXTT13=
EXTT14=
EXTT15=
EXTT16=
EXTT17=
EXTT18=
EXTT19=
EXTT20=
EXTT21=
EXTT22=
EXTT23=
EXTT24=
PLAYORDER=
